<svg id="Layer_1" data-name="Layer 1" xmlns="http://www.w3.org/2000/svg" viewBox="0 0 1210 366.02"><defs><style>.cls-1{fill:#004a7f;}</style></defs><path class="cls-1" d="M18.51,43.71,62.07,154.37,105.44,43.71h17.61L69.3,175.31H54.84L.9,43.71Z" transform="translate(-0.9 -40)"/><path class="cls-1" d="M153.26,177.16a34.93,34.93,0,0,1-12.79-2.31,31.81,31.81,0,0,1-10.28-6.4,30,30,0,0,1-6.86-9.54,28.37,28.37,0,0,1-2.5-12,25,25,0,0,1,3-12.14,27.66,27.66,0,0,1,8.44-9.36,43.51,43.51,0,0,1,13-6.12,57.6,57.6,0,0,1,16.41-2.22,79.81,79.81,0,0,1,14.22,1.34,64.48,64.48,0,0,1,12.79,3.52v-7.79q0-11.85-6.68-18.63t-18.9-6.76q-14.66,0-30.77,11.31L126.9,89.49q18.72-12.6,37.63-12.6,19.1,0,29.75,10.19t10.66,28.73v39.48c0,3.83,1.73,5.8,5.19,5.93v14.09c-1.73.25-3.15.43-4.27.56a34.58,34.58,0,0,1-3.52.18,10.39,10.39,0,0,1-7.69-2.87,11.85,11.85,0,0,1-3.43-7l-.37-6.86a41.77,41.77,0,0,1-16.4,13.25A50.34,50.34,0,0,1,153.26,177.16Zm4.27-12.23a40.55,40.55,0,0,0,16.22-3.24,26.83,26.83,0,0,0,11.4-8.62c2.34-2.35,3.52-4.76,3.52-7.23V131.57A67.14,67.14,0,0,0,164,126.93q-12.22,0-19.92,5.19t-7.69,13.53a18.39,18.39,0,0,0,1.57,7.6,18,18,0,0,0,4.45,6.12,21.2,21.2,0,0,0,6.77,4.08A23.25,23.25,0,0,0,157.53,164.93Z" transform="translate(-0.9 -40)"/><path class="cls-1" d="M231.48,40h16.31V150.29q0,5.37,2.88,8.43t8.06,3.06a21.19,21.19,0,0,0,4.82-.65,39.25,39.25,0,0,0,5.19-1.57l2.59,13.16a54.76,54.76,0,0,1-9.64,2.78,50.69,50.69,0,0,1-9.82,1.11q-9.45,0-14.92-5.38t-5.47-15Z" transform="translate(-0.9 -40)"/><path class="cls-1" d="M284.49,40H300.8V150.29q0,5.37,2.88,8.43t8.06,3.06a21.19,21.19,0,0,0,4.82-.65,39.25,39.25,0,0,0,5.19-1.57l2.59,13.16a54.66,54.66,0,0,1-9.63,2.78,50.79,50.79,0,0,1-9.83,1.11q-9.45,0-14.92-5.38t-5.47-15Z" transform="translate(-0.9 -40)"/><path class="cls-1" d="M380,177.16a49.26,49.26,0,0,1-20-4,47.54,47.54,0,0,1-15.57-10.84,49.45,49.45,0,0,1-10.1-16,53.5,53.5,0,0,1,0-38.64,48.86,48.86,0,0,1,10.2-16,48.27,48.27,0,0,1,15.66-10.84,49.43,49.43,0,0,1,20-4,47.09,47.09,0,0,1,44.95,30.67,52,52,0,0,1,3.42,18.63c0,1.36,0,2.6-.09,3.71a18.81,18.81,0,0,1-.28,2.59H347.9a37.57,37.57,0,0,0,3.34,13.16,33.42,33.42,0,0,0,17.33,16.87,30,30,0,0,0,12,2.41,32.11,32.11,0,0,0,8.71-1.2,38.58,38.58,0,0,0,8-3.25,27.65,27.65,0,0,0,6.58-5,20.75,20.75,0,0,0,4.36-6.68l14.08,3.9a35.38,35.38,0,0,1-6.58,9.82,43.38,43.38,0,0,1-9.64,7.69,49.07,49.07,0,0,1-12.14,5.1A52.1,52.1,0,0,1,380,177.16Zm33.18-56.72a34.82,34.82,0,0,0-3.43-12.69,34,34,0,0,0-7.23-9.92,33.14,33.14,0,0,0-34.57-6.39,31.41,31.41,0,0,0-10.1,6.48,32.9,32.9,0,0,0-7,9.92,36.26,36.26,0,0,0-3.25,12.6Z" transform="translate(-0.9 -40)"/><path class="cls-1" d="M448.35,201.63c1.6.25,3.21.43,4.81.56s2.85.18,3.71.18a7.87,7.87,0,0,0,4-1,11.11,11.11,0,0,0,3.52-4,70.46,70.46,0,0,0,4-8.25q2.24-5.28,5.56-13.81L433,78.55h16.87l33,82.12,30-82.12h15.57L481.34,200.71a28.24,28.24,0,0,1-8.62,11.39q-6,4.92-16.59,4.92c-1.15,0-2.29-.07-3.43-.19a42.47,42.47,0,0,1-4.35-.74Z" transform="translate(-0.9 -40)"/><path class="cls-1" d="M642.78,176.24a56,56,0,0,1-25.3-5.66,62.32,62.32,0,0,1-19.55-15,68.18,68.18,0,0,1-12.61-21.41,70.59,70.59,0,0,1-4.42-24.66,68.38,68.38,0,0,1,4.7-25.21A69.57,69.57,0,0,1,598.67,63a62.89,62.89,0,0,1,19.74-14.75,56.34,56.34,0,0,1,24.75-5.47,54.18,54.18,0,0,1,25.2,5.84,64.62,64.62,0,0,1,19.47,15.29,71,71,0,0,1,17.07,45.78,68.38,68.38,0,0,1-4.73,25.21,69.35,69.35,0,0,1-13,21.23,62.42,62.42,0,0,1-19.65,14.64A56.33,56.33,0,0,1,642.78,176.24Zm-45-66.73A58.35,58.35,0,0,0,601,128.88a53.62,53.62,0,0,0,9.17,16.59A44.29,44.29,0,0,0,624.43,157,40.16,40.16,0,0,0,643,161.26a38.9,38.9,0,0,0,18.93-4.58,46.18,46.18,0,0,0,14.18-11.86A53,53,0,0,0,685,128.23a59.15,59.15,0,0,0-.18-38.09,51.72,51.72,0,0,0-9.27-16.5,46.69,46.69,0,0,0-14.27-11.4,41.81,41.81,0,0,0-37.17.19A45.6,45.6,0,0,0,609.9,74.11a53.31,53.31,0,0,0-9,16.49,58.26,58.26,0,0,0-3.16,18.91Z" transform="translate(-0.9 -40)"/><path class="cls-1" d="M829.07,141.39a31.37,31.37,0,0,1-3.06,13.9A32.28,32.28,0,0,1,817.67,166a38,38,0,0,1-12.24,6.86,45.07,45.07,0,0,1-14.92,2.41H728.05V43.71h65.43a26.1,26.1,0,0,1,12.42,3,31,31,0,0,1,9.45,7.7,35.41,35.41,0,0,1,6,10.75,36.12,36.12,0,0,1,2.13,12.14,35,35,0,0,1-4.91,18.16,30.13,30.13,0,0,1-14,12.42,33.1,33.1,0,0,1,17.89,12.33A35,35,0,0,1,829.07,141.39ZM744.73,58.16V102.1h41.89a18.68,18.68,0,0,0,8.15-1.77,20.12,20.12,0,0,0,6.4-4.72A23.11,23.11,0,0,0,807,80.22a25.6,25.6,0,0,0-1.48-8.71,23.31,23.31,0,0,0-4-7,17.55,17.55,0,0,0-6.12-4.64,18.24,18.24,0,0,0-7.69-1.67Zm67.47,80.27a24.15,24.15,0,0,0-1.58-8.62,24.82,24.82,0,0,0-4.26-7.33,20.12,20.12,0,0,0-6.4-5,18,18,0,0,0-8.15-1.85H744.73v45.22h45.78A19.63,19.63,0,0,0,799,159a23.49,23.49,0,0,0,6.86-4.91A22.66,22.66,0,0,0,812.2,138.43Z" transform="translate(-0.9 -40)"/><path class="cls-1" d="M945.28,157.52q-17.41,18.72-40,18.72a52.7,52.7,0,0,1-24.38-5.75,64.29,64.29,0,0,1-19.37-15.1A72.67,72.67,0,0,1,848.62,134a67.36,67.36,0,0,1-4.72-24.86,69.83,69.83,0,0,1,17.43-46.43,60.32,60.32,0,0,1,19.45-14.55,56.24,56.24,0,0,1,24.47-5.38q19.08,0,31.41,8a52.87,52.87,0,0,1,18.82,20.76l-12.79,8.9q-5.94-11.49-15.76-17a44,44,0,0,0-22-5.57,38,38,0,0,0-18.17,4.36,45,45,0,0,0-13.9,11.49,53,53,0,0,0-8.9,16.5,60.15,60.15,0,0,0-3.15,19.37,56,56,0,0,0,3.52,19.92A54.64,54.64,0,0,0,874,146a44.85,44.85,0,0,0,14.46,11.22,40.76,40.76,0,0,0,18.16,4.07q21.51,0,38.74-20.76V122.3H916.9V109.69h42.45v65.62H945.28Z" transform="translate(-0.9 -40)"/><path class="cls-1" d="M983.28,43.71l39.85,68.58,40.23-68.58h18.16l-50,83.59v48h-16.68V126.93L964.9,43.71Z" transform="translate(-0.9 -40)"/><path class="cls-1" d="M1116.37,74.85V175.31h-16.68V43.71h13l81.56,102.5V43.89h16.65V175.31h-14.09Z" transform="translate(-0.9 -40)"/><path class="cls-1" d="M299.36,365.8v-134h57.4a36.42,36.42,0,0,1,16.33,3.68,41.23,41.23,0,0,1,12.84,9.82,46.79,46.79,0,0,1,8.4,13.78,42,42,0,0,1,3,15.58,46.14,46.14,0,0,1-2,13.5,41.82,41.82,0,0,1-5.66,11.8,37.83,37.83,0,0,1-8.88,9.06,34.49,34.49,0,0,1-11.61,5.48L401.7,365.8H382.44l-30.59-48.14H316.36V365.8Zm17-63.25H357a19.93,19.93,0,0,0,9.53-2.26,22.56,22.56,0,0,0,7.27-6.14,29.49,29.49,0,0,0,4.72-9,33,33,0,0,0,1.7-10.57,28.74,28.74,0,0,0-2-10.67,31.4,31.4,0,0,0-5.29-8.87,23.91,23.91,0,0,0-7.74-6,21,21,0,0,0-9.34-2.17H316.36Z" transform="translate(-0.9 -40)"/><path class="cls-1" d="M465.7,367.69a50.09,50.09,0,0,1-20.39-4.06,48,48,0,0,1-15.86-11,50.23,50.23,0,0,1-10.29-16.33,53.24,53.24,0,0,1-3.68-19.73,52.5,52.5,0,0,1,3.68-19.64,49.37,49.37,0,0,1,46.73-31.34,48,48,0,0,1,45.79,31.24,53.06,53.06,0,0,1,3.49,19c0,1.39,0,2.64-.1,3.78a20.52,20.52,0,0,1-.28,2.64H433a38,38,0,0,0,3.4,13.41A34.37,34.37,0,0,0,443.8,346a34,34,0,0,0,10.29,6.8,30.85,30.85,0,0,0,12.18,2.45,32.41,32.41,0,0,0,8.87-1.23,38,38,0,0,0,8.12-3.3,27.82,27.82,0,0,0,6.7-5.1,20.82,20.82,0,0,0,4.44-6.8l14.35,4a36.36,36.36,0,0,1-6.7,10,44.64,44.64,0,0,1-9.82,7.83,50.25,50.25,0,0,1-12.37,5.19A52.6,52.6,0,0,1,465.7,367.69Zm33.8-57.77A35.63,35.63,0,0,0,496,297a34.58,34.58,0,0,0-7.36-10.1,33.76,33.76,0,0,0-35.21-6.51A31.87,31.87,0,0,0,443.14,287a33.5,33.5,0,0,0-7.18,10.1,37.27,37.27,0,0,0-3.3,12.84Z" transform="translate(-0.9 -40)"/><path class="cls-1" d="M527.06,316.34a53.91,53.91,0,0,1,3.59-19.64,48.33,48.33,0,0,1,10.19-16.14,49.18,49.18,0,0,1,15.77-10.95,49.94,49.94,0,0,1,20.49-4.06q14.71,0,25.39,6.51a42.29,42.29,0,0,1,16.14,17.47l-16.23,5.09a27.08,27.08,0,0,0-10.58-10.85,30,30,0,0,0-15.1-3.87,30.84,30.84,0,0,0-23.23,10.38,37.79,37.79,0,0,0-6.89,11.52,40.08,40.08,0,0,0-2.55,14.54,39.64,39.64,0,0,0,2.65,14.54,38.75,38.75,0,0,0,7.08,11.8,32.39,32.39,0,0,0,10.38,7.83,29.28,29.28,0,0,0,12.75,2.83,30.74,30.74,0,0,0,8.59-1.22,32.9,32.9,0,0,0,7.74-3.31,29.12,29.12,0,0,0,6.13-4.81,16.3,16.3,0,0,0,3.78-5.95L619.39,343a35,35,0,0,1-6.33,10,39.43,39.43,0,0,1-9.53,7.74,52.37,52.37,0,0,1-26.25,7A49.18,49.18,0,0,1,541,352.4a50.4,50.4,0,0,1-10.29-16.33A53.44,53.44,0,0,1,527.06,316.34Z" transform="translate(-0.9 -40)"/><path class="cls-1" d="M681.88,367.69a50.13,50.13,0,0,1-20.39-4.06,48,48,0,0,1-15.86-11,50.23,50.23,0,0,1-10.29-16.33,53.44,53.44,0,0,1-3.68-19.73,52.7,52.7,0,0,1,3.68-19.64,49.37,49.37,0,0,1,46.73-31.34,48,48,0,0,1,45.79,31.24,53.06,53.06,0,0,1,3.49,19c0,1.39,0,2.64-.1,3.78a18.86,18.86,0,0,1-.28,2.64H649.22a38,38,0,0,0,3.4,13.41A34.37,34.37,0,0,0,660,346a34,34,0,0,0,10.29,6.8,30.85,30.85,0,0,0,12.18,2.45,32.41,32.41,0,0,0,8.87-1.23,37.76,37.76,0,0,0,8.12-3.3,27.82,27.82,0,0,0,6.7-5.1,20.82,20.82,0,0,0,4.44-6.8l14.35,4a36.36,36.36,0,0,1-6.7,10,44.64,44.64,0,0,1-9.82,7.83A50.25,50.25,0,0,1,696,365.8,52.6,52.6,0,0,1,681.88,367.69Zm33.8-57.77A35.82,35.82,0,0,0,712.19,297a34.79,34.79,0,0,0-7.37-10.1,33.76,33.76,0,0,0-35.21-6.51A32,32,0,0,0,659.32,287a33.5,33.5,0,0,0-7.18,10.1,37.27,37.27,0,0,0-3.3,12.84Z" transform="translate(-0.9 -40)"/><path class="cls-1" d="M749.47,248.74V228h16.62v20.77Zm0,117.06V267.25h16.62V365.8Z" transform="translate(-0.9 -40)"/><path class="cls-1" d="M845.2,367.69a38.9,38.9,0,0,1-21.62-6,45.85,45.85,0,0,1-14.82-15.29V406H792.14V267.25h14.73v18.5a45.65,45.65,0,0,1,15.2-14.63,39.64,39.64,0,0,1,20.67-5.57,42,42,0,0,1,18.7,4.15,46.68,46.68,0,0,1,14.72,11.24,52.47,52.47,0,0,1,9.73,16.33,54.29,54.29,0,0,1,3.49,19.26,60.94,60.94,0,0,1-3.21,19.92,49.71,49.71,0,0,1-9.06,16.23,43.77,43.77,0,0,1-14,10.95A39.47,39.47,0,0,1,845.2,367.69Zm-5.1-14.35a28.3,28.3,0,0,0,13.31-3.11,32.68,32.68,0,0,0,10.2-8.31,37.79,37.79,0,0,0,6.51-11.8,41.63,41.63,0,0,0,2.27-13.59,38.82,38.82,0,0,0-9.82-25.78,34.22,34.22,0,0,0-10.67-7.93,30.53,30.53,0,0,0-13.31-2.92,26.85,26.85,0,0,0-9.35,1.79,41.54,41.54,0,0,0-9.06,4.72,32.17,32.17,0,0,0-7.36,7,21,21,0,0,0-4.06,8.59v28.13a42.59,42.59,0,0,0,5.28,9.16,37.24,37.24,0,0,0,7.37,7.36,36.09,36.09,0,0,0,8.87,4.91A27.33,27.33,0,0,0,840.1,353.34Z" transform="translate(-0.9 -40)"/><path class="cls-1" d="M960.37,360.9c-1,.5-2.33,1.1-4,1.79s-3.49,1.39-5.57,2.08a50.24,50.24,0,0,1-6.79,1.7,43.38,43.38,0,0,1-7.65.66,25.19,25.19,0,0,1-15.67-5q-6.62-5-6.61-15.57V280.27h-13.4v-13h13.4V234.39h16.62v32.86h22.09v13H930.73v61.18q.38,5.48,3.58,7.93a12.06,12.06,0,0,0,7.56,2.45,24.13,24.13,0,0,0,9-1.6,38.37,38.37,0,0,0,5.57-2.55Z" transform="translate(-0.9 -40)"/></svg>